<svg xmlns="http://www.w3.org/2000/svg" width="640" height="420" viewBox="0 0 640 420" fill="none">
  <defs>
    <linearGradient id="bg" x1="64" y1="40" x2="576" y2="380" gradientUnits="userSpaceOnUse">
      <stop stop-color="#0EA5E9" stop-opacity="0.95"/>
      <stop offset="1" stop-color="#22C55E" stop-opacity="0.80"/>
    </linearGradient>
    <linearGradient id="card" x1="120" y1="110" x2="540" y2="330" gradientUnits="userSpaceOnUse">
      <stop stop-color="#FFFFFF" stop-opacity="0.90"/>
      <stop offset="1" stop-color="#FFFFFF" stop-opacity="0.65"/>
    </linearGradient>
    <filter id="shadow" x="0" y="0" width="640" height="420" filterUnits="userSpaceOnUse" color-interpolation-filters="sRGB">
      <feDropShadow dx="0" dy="12" stdDeviation="18" flood-color="#000" flood-opacity="0.18"/>
    </filter>
  </defs>

  <rect x="40" y="38" width="560" height="344" rx="28" fill="url(#bg)" filter="url(#shadow)"/>
  <rect x="92" y="92" width="456" height="236" rx="22" fill="url(#card)"/>

  <!-- ticket / admit card -->
  <g transform="translate(150 150)" fill="#0B1220" fill-opacity="0.82">
    <rect x="0" y="0" width="220" height="160" rx="18" fill-opacity="0.16"/>
    <rect x="18" y="20" width="130" height="14" rx="7"/>
    <rect x="18" y="48" width="172" height="12" rx="6" fill-opacity="0.55"/>
    <rect x="18" y="72" width="152" height="12" rx="6" fill-opacity="0.45"/>
    <rect x="18" y="104" width="96" height="40" rx="14"/>
  </g>

  <path d="M424 156c30 0 54 24 54 54s-24 54-54 54-54-24-54-54 24-54 54-54Z" fill="#0B1220" fill-opacity="0.10"/>
  <path d="M260 308h260" stroke="#0B1220" stroke-opacity="0.22" stroke-width="10" stroke-linecap="round"/>
</svg>
