<svg xmlns="http://www.w3.org/2000/svg" width="640" height="420" viewBox="0 0 640 420" fill="none">
  <defs>
    <linearGradient id="bg" x1="64" y1="40" x2="576" y2="380" gradientUnits="userSpaceOnUse">
      <stop stop-color="#F59E0B" stop-opacity="0.95"/>
      <stop offset="1" stop-color="#EF4444" stop-opacity="0.85"/>
    </linearGradient>
    <linearGradient id="card" x1="120" y1="110" x2="540" y2="330" gradientUnits="userSpaceOnUse">
      <stop stop-color="#FFFFFF" stop-opacity="0.90"/>
      <stop offset="1" stop-color="#FFFFFF" stop-opacity="0.65"/>
    </linearGradient>
    <filter id="shadow" x="0" y="0" width="640" height="420" filterUnits="userSpaceOnUse" color-interpolation-filters="sRGB">
      <feDropShadow dx="0" dy="12" stdDeviation="18" flood-color="#000" flood-opacity="0.18"/>
    </filter>
  </defs>

  <rect x="40" y="38" width="560" height="344" rx="28" fill="url(#bg)" filter="url(#shadow)"/>
  <rect x="92" y="92" width="456" height="236" rx="22" fill="url(#card)"/>

  <!-- simple building -->
  <g transform="translate(140 150)" fill="#0B1220" fill-opacity="0.82">
    <path d="M28 68 84 22l56 46v14H28V68Z"/>
    <rect x="34" y="82" width="106" height="104" rx="12" fill-opacity="0.18"/>
    <rect x="44" y="96" width="18" height="76" rx="8"/>
    <rect x="76" y="96" width="18" height="76" rx="8"/>
    <rect x="108" y="96" width="18" height="76" rx="8"/>
  </g>

  <!-- accents -->
  <path d="M444 146c30 0 54 24 54 54s-24 54-54 54-54-24-54-54 24-54 54-54Z" fill="#0B1220" fill-opacity="0.10"/>
  <path d="M260 308h260" stroke="#0B1220" stroke-opacity="0.22" stroke-width="10" stroke-linecap="round"/>
  <path d="M260 276h210" stroke="#0B1220" stroke-opacity="0.18" stroke-width="10" stroke-linecap="round"/>
  <path d="M260 244h170" stroke="#0B1220" stroke-opacity="0.14" stroke-width="10" stroke-linecap="round"/>
</svg>
