<svg xmlns="http://www.w3.org/2000/svg" width="640" height="420" viewBox="0 0 640 420" fill="none">
  <defs>
    <linearGradient id="bg" x1="64" y1="40" x2="576" y2="380" gradientUnits="userSpaceOnUse">
      <stop stop-color="#8B5CF6" stop-opacity="0.95"/>
      <stop offset="1" stop-color="#EC4899" stop-opacity="0.85"/>
    </linearGradient>
    <linearGradient id="card" x1="120" y1="110" x2="540" y2="330" gradientUnits="userSpaceOnUse">
      <stop stop-color="#FFFFFF" stop-opacity="0.90"/>
      <stop offset="1" stop-color="#FFFFFF" stop-opacity="0.65"/>
    </linearGradient>
    <filter id="shadow" x="0" y="0" width="640" height="420" filterUnits="userSpaceOnUse" color-interpolation-filters="sRGB">
      <feDropShadow dx="0" dy="12" stdDeviation="18" flood-color="#000" flood-opacity="0.18"/>
    </filter>
  </defs>

  <rect x="40" y="38" width="560" height="344" rx="28" fill="url(#bg)" filter="url(#shadow)"/>
  <rect x="92" y="92" width="456" height="236" rx="22" fill="url(#card)"/>

  <!-- simple chart -->
  <g transform="translate(128 168)" fill="#0B1220" fill-opacity="0.82">
    <rect x="0" y="140" width="210" height="10" rx="5" fill-opacity="0.20"/>
    <rect x="16" y="84" width="30" height="66" rx="10"/>
    <rect x="60" y="54" width="30" height="96" rx="10"/>
    <rect x="104" y="28" width="30" height="122" rx="10"/>
    <rect x="148" y="70" width="30" height="80" rx="10"/>
  </g>

  <!-- accents -->
  <path d="M448 150c32 0 58 26 58 58s-26 58-58 58-58-26-58-58 26-58 58-58Z" fill="#0B1220" fill-opacity="0.10"/>
  <path d="M260 308h260" stroke="#0B1220" stroke-opacity="0.22" stroke-width="10" stroke-linecap="round"/>
  <path d="M260 276h210" stroke="#0B1220" stroke-opacity="0.18" stroke-width="10" stroke-linecap="round"/>
  <path d="M260 244h170" stroke="#0B1220" stroke-opacity="0.14" stroke-width="10" stroke-linecap="round"/>
</svg>
